<svg xmlns="http://www.w3.org/2000/svg" viewBox="370 310 260 260">
  <defs>
    <linearGradient id="g1" x1="0%" y1="100%" x2="100%" y2="0%">
      <stop offset="0" stop-color="#A549EA"/>
      <stop offset="1" stop-color="#3ED3E7"/>
    </linearGradient>
  </defs>
  <path fill="url(#g1)" d="M462.3,485.7V457.9L421.7,434.5V396.2L454.8,377L488,396.2V443.4V506.4V524.8L500,531.8L512,524.9V441.9V438.1V396.2L545.2,377L578.3,396.2V434.5L537.7,457.9V485.8L602.4,448.2V382.3L545.4,349.3L527.9,359.2L521.2,363.1L500,375.3L478.8,363.1L472.1,359.2L454.6,349.3L397.6,382.3V448.3L424.8,464.1ZM500,350.8L524.3,337L500,323L475.7,337ZM421.7,486.5L397.6,472.6V500.5L462.3,537.8V510ZM602.4,473.3L556.6,499.1L537.7,510V537.9L602.4,500.5ZM488,545.7V552.6L500,559.6L512,552.7V545.7ZM488,524.8L500,531.8L512,524.9Z"/>
</svg>
