<?xml version="1.0" encoding="utf-8"?>
<!-- Generator: Adobe Illustrator 24.3.0, SVG Export Plug-In . SVG Version: 6.00 Build 0)  -->
<svg version="1.1" id="Layer_1" xmlns="http://www.w3.org/2000/svg" xmlns:xlink="http://www.w3.org/1999/xlink" x="0px" y="0px"
	 viewBox="0 0 1000 1000" style="enable-background:new 0 0 1000 1000;" xml:space="preserve">
<style type="text/css">
	.st0{fill:#4A0A7C;}
	.st1{fill:url(#SVGID_1_);}
	.st2{fill:url(#SVGID_2_);}
	.st3{fill:url(#SVGID_3_);}
	.st4{fill:url(#SVGID_4_);}
	.st5{fill:url(#SVGID_5_);}
	.st6{fill:url(#SVGID_6_);}
	.st7{fill:url(#SVGID_7_);}
	.st8{fill:url(#SVGID_8_);}
	.st9{fill:url(#SVGID_9_);}
	.st10{fill:url(#SVGID_10_);}
	.st11{fill:url(#SVGID_11_);}
	.st12{fill:url(#SVGID_12_);}
	.st13{fill:url(#SVGID_13_);}
	.st14{fill:url(#SVGID_14_);}
	.st15{fill:url(#SVGID_15_);}
	.st16{fill:url(#SVGID_16_);}
	.st17{fill:#FFFFFF;}
	.st18{fill:url(#SVGID_17_);}
	.st19{fill:url(#SVGID_18_);}
	.st20{fill:url(#SVGID_19_);}
	.st21{fill:url(#SVGID_20_);}
	.st22{fill:url(#SVGID_21_);}
	.st23{fill:url(#SVGID_22_);}
	.st24{fill:url(#SVGID_23_);}
	.st25{fill:url(#SVGID_24_);}
	.st26{fill:url(#SVGID_25_);}
	.st27{fill:url(#SVGID_26_);}
	.st28{fill:url(#SVGID_27_);}
	.st29{fill:url(#SVGID_28_);}
	.st30{fill:url(#SVGID_29_);}
	.st31{fill:url(#SVGID_30_);}
	.st32{fill:url(#SVGID_31_);}
	.st33{fill:url(#SVGID_32_);}
	.st34{fill:url(#SVGID_33_);}
	.st35{fill:url(#SVGID_34_);}
	.st36{fill:url(#SVGID_35_);}
	.st37{fill:url(#SVGID_36_);}
	.st38{fill:url(#SVGID_37_);}
	.st39{fill:url(#SVGID_38_);}
	.st40{fill:url(#SVGID_39_);}
	.st41{fill:url(#SVGID_40_);}
	.st42{fill:url(#SVGID_41_);}
	.st43{fill:url(#SVGID_42_);}
	.st44{fill:url(#SVGID_43_);}
	.st45{fill:url(#SVGID_44_);}
	.st46{fill:url(#SVGID_45_);}
	.st47{fill:url(#SVGID_46_);}
	.st48{fill:url(#SVGID_47_);}
	.st49{fill:url(#SVGID_48_);}
	.st50{fill:url(#SVGID_49_);}
	.st51{fill:url(#SVGID_50_);}
	.st52{fill:url(#SVGID_51_);}
	.st53{fill:url(#SVGID_52_);}
	.st54{fill:url(#SVGID_53_);}
	.st55{fill:url(#SVGID_54_);}
	.st56{fill:url(#SVGID_55_);}
	.st57{fill:url(#SVGID_56_);}
	.st58{fill:url(#SVGID_57_);}
	.st59{fill:url(#SVGID_58_);}
	.st60{fill:url(#SVGID_59_);}
	.st61{fill:url(#SVGID_60_);}
	.st62{fill:url(#SVGID_61_);}
	.st63{fill:url(#SVGID_62_);}
	.st64{fill:url(#SVGID_63_);}
	.st65{fill:url(#SVGID_64_);}
	.st66{fill:url(#SVGID_65_);}
	.st67{fill:url(#SVGID_66_);}
	.st68{fill:url(#SVGID_67_);}
	.st69{fill:url(#SVGID_68_);}
	.st70{fill:url(#SVGID_69_);}
	.st71{fill:url(#SVGID_70_);}
	.st72{fill:url(#SVGID_71_);}
	.st73{fill:url(#SVGID_72_);}
	.st74{fill:url(#SVGID_73_);}
	.st75{fill:url(#SVGID_74_);}
	.st76{fill:url(#SVGID_75_);}
	.st77{fill:url(#SVGID_76_);}
	.st78{fill:url(#SVGID_77_);}
	.st79{fill:url(#SVGID_78_);}
	.st80{fill:url(#SVGID_79_);}
	.st81{fill:url(#SVGID_80_);}
</style>
<g>
	<g>
		<path class="st0" d="M270.6,617.2h13.7V675h-13.5l-0.7-8.4c-3.3,6.8-12.3,10.1-18.7,10.2c-17.1,0.1-29.8-10.4-29.8-30.7
			c0-19.9,13.2-30.3,30.1-30.2c7.7,0,15.1,3.6,18.4,9.4L270.6,617.2z M236,646.1c0,11,7.6,17.6,17.1,17.6c22.5,0,22.5-35,0-35
			C243.6,628.6,236,635,236,646.1z"/>
		<path class="st0" d="M308.2,617.2v30.2c0,8.8,4.8,15.5,13.9,15.5c8.8,0,14.8-7.4,14.8-16.2v-29.5h14.2v57.9h-12.8l-0.9-7.9
			c-6,5.9-11.5,8.7-19.6,8.7c-13.8,0-23.9-10.4-23.9-28.4v-30.3H308.2z"/>
		<path class="st0" d="M413.3,667.6c-6.7,6.6-13.7,9.1-22.3,9.1c-16.8,0-30.7-10.1-30.7-30.6c0-20.5,13.9-30.6,30.7-30.6
			c8.2,0,14.5,2.3,20.9,8.6l-9,9.5c-3.4-3-7.6-4.6-11.6-4.6c-9.6,0-16.6,7-16.6,17.1c0,11,7.5,16.9,16.4,16.9
			c4.6,0,9.1-1.3,12.7-4.8L413.3,667.6z"/>
		<path class="st0" d="M439.8,600.9v16.4h15.9v12.3h-16.1v25c0,5.5,3,8.2,7.5,8.2c2.2,0,4.8-0.7,6.9-1.8l4,12.2
			c-4.1,1.6-7.5,2.3-11.8,2.5c-12.5,0.5-20.7-6.7-20.7-21.1v-25h-10.8v-12.3h10.8v-14.9L439.8,600.9z"/>
		<path class="st0" d="M523.8,646.2c0,16.6-11.4,30.1-30.1,30.1c-18.7,0-30-13.5-30-30.1c0-16.5,11.5-30.1,29.9-30.1
			C512,616.1,523.8,629.7,523.8,646.2z M478,646.2c0,8.8,5.3,17,15.7,17c10.4,0,15.7-8.2,15.7-17c0-8.7-6.1-17.1-15.7-17.1
			C483.4,629.1,478,637.5,478,646.2z"/>
		<path class="st0" d="M546.9,617.2l1.1,6.7c4.5-7.1,10.4-8.2,16.3-8.2c6,0,11.7,2.3,14.9,5.5l-6.4,12.4c-2.9-2.5-5.6-3.7-10.3-3.7
			c-7.5,0-14.4,4-14.4,14.6V675h-14.3v-57.8H546.9z"/>
		<path class="st0" d="M600,600.9c0,11.1-16.9,11.1-16.9,0C583.2,589.8,600,589.8,600,600.9z M584.5,617v58h14.3v-58H584.5z"/>
		<path class="st0" d="M631.8,600.9v16.4h15.9v12.3h-16.1v25c0,5.5,3,8.2,7.5,8.2c2.2,0,4.8-0.7,6.9-1.8l4,12.2
			c-4.1,1.6-7.5,2.3-11.8,2.5c-12.5,0.5-20.7-6.7-20.7-21.1v-25h-10.8v-12.3h10.8v-14.9L631.8,600.9z"/>
		<path class="st0" d="M704.2,617.2h13.7V675h-13.5l-0.7-8.4c-3.3,6.8-12.3,10.1-18.7,10.2c-17.1,0.1-29.8-10.4-29.8-30.7
			c0-19.9,13.2-30.3,30.1-30.2c7.7,0,15.1,3.6,18.4,9.4L704.2,617.2z M669.5,646.1c0,11,7.6,17.6,17.1,17.6c22.5,0,22.5-35,0-35
			C677.1,628.6,669.5,635,669.5,646.1z"/>
		<path class="st0" d="M767.7,632.6c-4.1-3.9-8.8-5.2-14.3-5.2c-6.8,0-10.5,2.1-10.5,5.7c0,3.7,3.4,5.9,10.8,6.3
			c10.9,0.7,24.7,3.2,24.7,18.5c0,10.2-8.3,19-24.8,19c-9.1,0-18.3-1.5-26.7-10.3l7-10.2c4.1,4.6,13.5,8,19.9,8.1
			c5.4,0.1,10.4-2.7,10.4-6.9c0-4-3.3-5.6-11.5-6.1c-10.9-0.8-23.9-4.8-23.9-17.9c0-13.4,13.8-18,24.4-18c9,0,15.8,1.8,22.5,7.6
			L767.7,632.6z"/>
	</g>
	<g>
		<linearGradient id="SVGID_1_" gradientUnits="userSpaceOnUse" x1="380.4207" y1="549.9552" x2="576.98" y2="372.3413">
			<stop  offset="0" style="stop-color:#A549EA"/>
			<stop  offset="1" style="stop-color:#3ED3E7"/>
		</linearGradient>
		<polygon class="st1" points="421.7,486.5 421.7,486.5 397.6,472.6 397.6,500.5 462.3,537.8 462.3,510 		"/>
		<linearGradient id="SVGID_2_" gradientUnits="userSpaceOnUse" x1="443.4201" y1="619.6746" x2="639.9794" y2="442.0607">
			<stop  offset="0" style="stop-color:#A549EA"/>
			<stop  offset="1" style="stop-color:#3ED3E7"/>
		</linearGradient>
		<polygon class="st2" points="602.4,473.3 556.6,499.1 537.7,510 537.7,537.9 602.4,500.5 		"/>
		<linearGradient id="SVGID_3_" gradientUnits="userSpaceOnUse" x1="433.7759" y1="609.0016" x2="630.3352" y2="431.3878">
			<stop  offset="0" style="stop-color:#A549EA"/>
			<stop  offset="1" style="stop-color:#3ED3E7"/>
		</linearGradient>
		<polygon class="st3" points="488,545.7 488,552.6 500,559.6 512,552.7 512,545.7 		"/>
		<linearGradient id="SVGID_4_" gradientUnits="userSpaceOnUse" x1="351.2473" y1="517.67" x2="547.8066" y2="340.0562">
			<stop  offset="0" style="stop-color:#A549EA"/>
			<stop  offset="1" style="stop-color:#3ED3E7"/>
		</linearGradient>
		<polygon class="st4" points="527.9,359.2 521.1,363 521.2,363.1 		"/>
		<linearGradient id="SVGID_5_" gradientUnits="userSpaceOnUse" x1="375.7941" y1="544.8351" x2="572.3535" y2="367.2213">
			<stop  offset="0" style="stop-color:#A549EA"/>
			<stop  offset="1" style="stop-color:#3ED3E7"/>
		</linearGradient>
		<polygon class="st5" points="602.4,382.3 602.4,382.2 545.5,349.3 545.4,349.3 		"/>
		<linearGradient id="SVGID_6_" gradientUnits="userSpaceOnUse" x1="309.3094" y1="471.2588" x2="505.8687" y2="293.6449">
			<stop  offset="0" style="stop-color:#A549EA"/>
			<stop  offset="1" style="stop-color:#3ED3E7"/>
		</linearGradient>
		<polygon class="st6" points="454.6,349.3 454.5,349.3 397.6,382.2 397.6,382.3 397.6,382.3 397.6,382.3 		"/>
		<linearGradient id="SVGID_7_" gradientUnits="userSpaceOnUse" x1="328.2552" y1="492.2254" x2="524.8145" y2="314.6115">
			<stop  offset="0" style="stop-color:#A549EA"/>
			<stop  offset="1" style="stop-color:#3ED3E7"/>
		</linearGradient>
		<polygon class="st7" points="500,350.8 500.2,351 524.3,337 500,323 475.7,337 499.8,351 		"/>
		<linearGradient id="SVGID_8_" gradientUnits="userSpaceOnUse" x1="329.2104" y1="493.2825" x2="525.7697" y2="315.6687">
			<stop  offset="0" style="stop-color:#A549EA"/>
			<stop  offset="1" style="stop-color:#3ED3E7"/>
		</linearGradient>
		<polygon class="st8" points="478.9,363 472.1,359.2 478.8,363.1 		"/>
		<linearGradient id="SVGID_9_" gradientUnits="userSpaceOnUse" x1="367.1506" y1="535.2697" x2="563.7099" y2="357.6559">
			<stop  offset="0" style="stop-color:#A549EA"/>
			<stop  offset="1" style="stop-color:#3ED3E7"/>
		</linearGradient>
		<polygon class="st9" points="462.3,485.7 462.3,457.9 421.7,434.5 421.7,396.2 454.8,377 488,396.2 488,436.3 488,443.4 
			488,506.4 488,524.8 500,531.8 512,524.9 512,441.9 512,441.9 512,438.1 512,396.2 545.2,377 578.3,396.2 578.3,434.5 
			537.7,457.9 537.7,485.8 602.4,448.2 602.4,382.3 602.4,382.3 602.4,382.3 545.4,349.3 527.9,359.2 521.2,363.1 500,375.3 
			478.8,363.1 472.1,359.2 454.6,349.3 397.6,382.3 397.6,448.3 424.8,464.1 		"/>
		<linearGradient id="SVGID_10_" gradientUnits="userSpaceOnUse" x1="375.7942" y1="544.8352" x2="572.3535" y2="367.2214">
			<stop  offset="0" style="stop-color:#A549EA"/>
			<stop  offset="1" style="stop-color:#3ED3E7"/>
		</linearGradient>
		<polygon class="st10" points="545.4,349.3 602.4,382.3 602.4,382.3 545.4,349.3 		"/>
		<linearGradient id="SVGID_11_" gradientUnits="userSpaceOnUse" x1="375.7942" y1="544.8352" x2="572.3535" y2="367.2214">
			<stop  offset="0" style="stop-color:#A549EA"/>
			<stop  offset="1" style="stop-color:#3ED3E7"/>
		</linearGradient>
		<polygon class="st11" points="545.4,349.3 602.4,382.3 602.4,382.3 545.4,349.3 		"/>
		<linearGradient id="SVGID_12_" gradientUnits="userSpaceOnUse" x1="309.3333" y1="471.2852" x2="505.8926" y2="293.6713">
			<stop  offset="0" style="stop-color:#A549EA"/>
			<stop  offset="1" style="stop-color:#3ED3E7"/>
		</linearGradient>
		<polygon class="st12" points="454.6,349.3 397.6,382.3 397.6,382.3 454.6,349.3 		"/>
		<linearGradient id="SVGID_13_" gradientUnits="userSpaceOnUse" x1="309.3333" y1="471.2852" x2="505.8926" y2="293.6713">
			<stop  offset="0" style="stop-color:#A549EA"/>
			<stop  offset="1" style="stop-color:#3ED3E7"/>
		</linearGradient>
		<polygon class="st13" points="454.6,349.3 397.6,382.3 397.6,382.3 454.6,349.3 		"/>
		<linearGradient id="SVGID_14_" gradientUnits="userSpaceOnUse" x1="426.8454" y1="601.332" x2="623.4047" y2="423.7181">
			<stop  offset="0" style="stop-color:#A549EA"/>
			<stop  offset="1" style="stop-color:#3ED3E7"/>
		</linearGradient>
		<polygon class="st14" points="500,531.8 488,524.8 488,545.7 512,545.7 512,524.9 		"/>
		<linearGradient id="SVGID_15_" gradientUnits="userSpaceOnUse" x1="421.6637" y1="595.5975" x2="618.223" y2="417.9837">
			<stop  offset="0" style="stop-color:#A549EA"/>
			<stop  offset="1" style="stop-color:#3ED3E7"/>
		</linearGradient>
		<polygon class="st15" points="512,524.9 512,524.9 500,531.8 488,524.8 500,531.8 		"/>
		<linearGradient id="SVGID_16_" gradientUnits="userSpaceOnUse" x1="421.6637" y1="595.5975" x2="618.223" y2="417.9837">
			<stop  offset="0" style="stop-color:#A549EA"/>
			<stop  offset="1" style="stop-color:#3ED3E7"/>
		</linearGradient>
		<polygon class="st16" points="512,524.9 512,524.9 500,531.8 488,524.8 500,531.8 		"/>
	</g>
</g>
</svg>
